<mxfile host="app.diagrams.net" modified="2023-09-07T13:26:32.527Z" agent="Mozilla/5.0 (Windows NT 10.0; Win64; x64; rv:109.0) Gecko/20100101 Firefox/117.0" etag="zGcCHiNd2pC5e3LhaLJV" version="21.7.2" type="device">
  <diagram name="Page-1" id="LGZ4ZbDn2y5poeZC46n7">
    <mxGraphModel dx="794" dy="474" grid="1" gridSize="10" guides="1" tooltips="1" connect="1" arrows="1" fold="1" page="1" pageScale="1" pageWidth="850" pageHeight="1100" math="0" shadow="0">
      <root>
        <mxCell id="0" />
        <mxCell id="1" parent="0" />
        <mxCell id="gEEBLPTeKTCBqOCY-Zpu-1" value="User" style="shape=umlActor;verticalLabelPosition=bottom;verticalAlign=top;html=1;outlineConnect=0;" vertex="1" parent="1">
          <mxGeometry x="120" y="200" width="30" height="60" as="geometry" />
        </mxCell>
        <mxCell id="gEEBLPTeKTCBqOCY-Zpu-2" value="" style="rounded=0;whiteSpace=wrap;html=1;" vertex="1" parent="1">
          <mxGeometry x="300" y="200" width="120" height="60" as="geometry" />
        </mxCell>
        <mxCell id="gEEBLPTeKTCBqOCY-Zpu-3" value="" style="endArrow=classic;html=1;rounded=0;entryX=0;entryY=0;entryDx=0;entryDy=0;" edge="1" parent="1" target="gEEBLPTeKTCBqOCY-Zpu-2">
          <mxGeometry width="50" height="50" relative="1" as="geometry">
            <mxPoint x="160" y="200" as="sourcePoint" />
            <mxPoint x="210" y="180" as="targetPoint" />
            <Array as="points" />
          </mxGeometry>
        </mxCell>
        <mxCell id="gEEBLPTeKTCBqOCY-Zpu-4" value="Browser makes HTTP Request" style="text;html=1;align=center;verticalAlign=middle;resizable=0;points=[];autosize=1;strokeColor=none;fillColor=none;" vertex="1" parent="1">
          <mxGeometry x="130" y="160" width="190" height="30" as="geometry" />
        </mxCell>
        <mxCell id="gEEBLPTeKTCBqOCY-Zpu-5" value="" style="endArrow=classic;html=1;rounded=0;exitX=0;exitY=1;exitDx=0;exitDy=0;" edge="1" parent="1" source="gEEBLPTeKTCBqOCY-Zpu-2">
          <mxGeometry width="50" height="50" relative="1" as="geometry">
            <mxPoint x="210" y="280" as="sourcePoint" />
            <mxPoint x="160" y="260" as="targetPoint" />
          </mxGeometry>
        </mxCell>
        <mxCell id="gEEBLPTeKTCBqOCY-Zpu-7" value="HTML, CSS, JS bundle returned" style="text;html=1;strokeColor=none;fillColor=none;align=center;verticalAlign=middle;whiteSpace=wrap;rounded=0;" vertex="1" parent="1">
          <mxGeometry x="172.5" y="270" width="105" height="30" as="geometry" />
        </mxCell>
        <mxCell id="gEEBLPTeKTCBqOCY-Zpu-8" value="React Frontend" style="text;html=1;strokeColor=none;fillColor=none;align=center;verticalAlign=middle;whiteSpace=wrap;rounded=0;" vertex="1" parent="1">
          <mxGeometry x="330" y="215" width="60" height="30" as="geometry" />
        </mxCell>
        <mxCell id="gEEBLPTeKTCBqOCY-Zpu-9" value="" style="rounded=0;whiteSpace=wrap;html=1;" vertex="1" parent="1">
          <mxGeometry x="530" y="200" width="120" height="60" as="geometry" />
        </mxCell>
        <mxCell id="gEEBLPTeKTCBqOCY-Zpu-10" value="" style="endArrow=classic;html=1;rounded=0;" edge="1" parent="1">
          <mxGeometry width="50" height="50" relative="1" as="geometry">
            <mxPoint x="410" y="200" as="sourcePoint" />
            <mxPoint x="530" y="200" as="targetPoint" />
            <Array as="points" />
          </mxGeometry>
        </mxCell>
        <mxCell id="gEEBLPTeKTCBqOCY-Zpu-13" value="" style="endArrow=classic;html=1;rounded=0;exitX=0;exitY=1;exitDx=0;exitDy=0;entryX=1;entryY=1;entryDx=0;entryDy=0;" edge="1" parent="1" target="gEEBLPTeKTCBqOCY-Zpu-2">
          <mxGeometry width="50" height="50" relative="1" as="geometry">
            <mxPoint x="530" y="259" as="sourcePoint" />
            <mxPoint x="390" y="259" as="targetPoint" />
          </mxGeometry>
        </mxCell>
        <mxCell id="gEEBLPTeKTCBqOCY-Zpu-14" value="Fetch HTTP Call" style="text;html=1;strokeColor=none;fillColor=none;align=center;verticalAlign=middle;whiteSpace=wrap;rounded=0;" vertex="1" parent="1">
          <mxGeometry x="425" y="160" width="100" height="30" as="geometry" />
        </mxCell>
        <mxCell id="gEEBLPTeKTCBqOCY-Zpu-15" value="JSON Data" style="text;html=1;strokeColor=none;fillColor=none;align=center;verticalAlign=middle;whiteSpace=wrap;rounded=0;" vertex="1" parent="1">
          <mxGeometry x="437.5" y="270" width="75" height="30" as="geometry" />
        </mxCell>
        <mxCell id="gEEBLPTeKTCBqOCY-Zpu-16" value="Spring Boot Backend" style="text;html=1;strokeColor=none;fillColor=none;align=center;verticalAlign=middle;whiteSpace=wrap;rounded=0;" vertex="1" parent="1">
          <mxGeometry x="560" y="215" width="70" height="30" as="geometry" />
        </mxCell>
        <mxCell id="gEEBLPTeKTCBqOCY-Zpu-17" value="" style="endArrow=classic;html=1;rounded=0;entryX=0;entryY=0.75;entryDx=0;entryDy=0;" edge="1" parent="1" target="gEEBLPTeKTCBqOCY-Zpu-20">
          <mxGeometry width="50" height="50" relative="1" as="geometry">
            <mxPoint x="650" y="200" as="sourcePoint" />
            <mxPoint x="700" y="150" as="targetPoint" />
          </mxGeometry>
        </mxCell>
        <mxCell id="gEEBLPTeKTCBqOCY-Zpu-20" value="" style="rounded=0;whiteSpace=wrap;html=1;" vertex="1" parent="1">
          <mxGeometry x="740" y="100" width="120" height="60" as="geometry" />
        </mxCell>
        <mxCell id="gEEBLPTeKTCBqOCY-Zpu-21" value="Python Matplotlib Script" style="text;html=1;strokeColor=none;fillColor=none;align=center;verticalAlign=middle;whiteSpace=wrap;rounded=0;" vertex="1" parent="1">
          <mxGeometry x="770" y="115" width="60" height="30" as="geometry" />
        </mxCell>
        <mxCell id="gEEBLPTeKTCBqOCY-Zpu-22" value="subprocess.call" style="text;html=1;strokeColor=none;fillColor=none;align=center;verticalAlign=middle;whiteSpace=wrap;rounded=0;" vertex="1" parent="1">
          <mxGeometry x="630" y="140" width="60" height="30" as="geometry" />
        </mxCell>
        <mxCell id="gEEBLPTeKTCBqOCY-Zpu-23" value="" style="endArrow=classic;html=1;rounded=0;entryX=1;entryY=0.25;entryDx=0;entryDy=0;exitX=0;exitY=1;exitDx=0;exitDy=0;" edge="1" parent="1" source="gEEBLPTeKTCBqOCY-Zpu-20" target="gEEBLPTeKTCBqOCY-Zpu-9">
          <mxGeometry width="50" height="50" relative="1" as="geometry">
            <mxPoint x="690" y="255" as="sourcePoint" />
            <mxPoint x="780" y="200" as="targetPoint" />
          </mxGeometry>
        </mxCell>
        <mxCell id="gEEBLPTeKTCBqOCY-Zpu-24" value="JSON Image String" style="text;html=1;strokeColor=none;fillColor=none;align=center;verticalAlign=middle;whiteSpace=wrap;rounded=0;" vertex="1" parent="1">
          <mxGeometry x="710" y="180" width="70" height="30" as="geometry" />
        </mxCell>
        <mxCell id="gEEBLPTeKTCBqOCY-Zpu-25" value="" style="rounded=0;whiteSpace=wrap;html=1;" vertex="1" parent="1">
          <mxGeometry x="740" y="280" width="120" height="60" as="geometry" />
        </mxCell>
        <mxCell id="gEEBLPTeKTCBqOCY-Zpu-26" value="" style="endArrow=classic;html=1;rounded=0;entryX=0;entryY=0.25;entryDx=0;entryDy=0;" edge="1" parent="1" target="gEEBLPTeKTCBqOCY-Zpu-25">
          <mxGeometry width="50" height="50" relative="1" as="geometry">
            <mxPoint x="650" y="260" as="sourcePoint" />
            <mxPoint x="740" y="205" as="targetPoint" />
          </mxGeometry>
        </mxCell>
        <mxCell id="gEEBLPTeKTCBqOCY-Zpu-28" value="" style="endArrow=classic;html=1;rounded=0;entryX=1;entryY=0.75;entryDx=0;entryDy=0;exitX=0;exitY=0;exitDx=0;exitDy=0;" edge="1" parent="1" source="gEEBLPTeKTCBqOCY-Zpu-25" target="gEEBLPTeKTCBqOCY-Zpu-9">
          <mxGeometry width="50" height="50" relative="1" as="geometry">
            <mxPoint x="675" y="245" as="sourcePoint" />
            <mxPoint x="765" y="280" as="targetPoint" />
          </mxGeometry>
        </mxCell>
        <mxCell id="gEEBLPTeKTCBqOCY-Zpu-29" value="Postgres DB" style="text;html=1;strokeColor=none;fillColor=none;align=center;verticalAlign=middle;whiteSpace=wrap;rounded=0;" vertex="1" parent="1">
          <mxGeometry x="770" y="295" width="60" height="30" as="geometry" />
        </mxCell>
        <mxCell id="gEEBLPTeKTCBqOCY-Zpu-30" value="SQL ORM" style="text;html=1;strokeColor=none;fillColor=none;align=center;verticalAlign=middle;whiteSpace=wrap;rounded=0;" vertex="1" parent="1">
          <mxGeometry x="650" y="280" width="60" height="30" as="geometry" />
        </mxCell>
        <mxCell id="gEEBLPTeKTCBqOCY-Zpu-31" value="Data e.g. sessionId" style="text;html=1;strokeColor=none;fillColor=none;align=center;verticalAlign=middle;whiteSpace=wrap;rounded=0;" vertex="1" parent="1">
          <mxGeometry x="720" y="240" width="60" height="30" as="geometry" />
        </mxCell>
      </root>
    </mxGraphModel>
  </diagram>
</mxfile>
